<svg xmlns="http://www.w3.org/2000/svg" width="920" height="420">
<rect width="100%" height="100%" fill="#0b1220"/>
<text x="40" y="60" fill="#fff" font-size="28" font-family="Arial">Topologias de rede (visão rápida)</text>
<g font-family="Arial" fill="#e5e7eb" font-size="16">
  <text x="70" y="110" fill="#fff" font-size="18">Estrela</text>
  <circle cx="120" cy="160" r="10" fill="#0f766e"/>
  <circle cx="70" cy="200" r="8" fill="#1f2937"/>
  <circle cx="170" cy="200" r="8" fill="#1f2937"/>
  <circle cx="70" cy="120" r="8" fill="#1f2937"/>
  <circle cx="170" cy="120" r="8" fill="#1f2937"/>
  <line x1="120" y1="160" x2="70" y2="200" stroke="#fff"/>
  <line x1="120" y1="160" x2="170" y2="200" stroke="#fff"/>
  <line x1="120" y1="160" x2="70" y2="120" stroke="#fff"/>
  <line x1="120" y1="160" x2="170" y2="120" stroke="#fff"/>

  <text x="320" y="110" fill="#fff" font-size="18">Barramento</text>
  <line x1="300" y1="160" x2="500" y2="160" stroke="#fff" stroke-width="3"/>
  <circle cx="330" cy="130" r="8" fill="#1f2937"/>
  <circle cx="390" cy="130" r="8" fill="#1f2937"/>
  <circle cx="450" cy="130" r="8" fill="#1f2937"/>
  <line x1="330" y1="130" x2="330" y2="160" stroke="#fff"/>
  <line x1="390" y1="130" x2="390" y2="160" stroke="#fff"/>
  <line x1="450" y1="130" x2="450" y2="160" stroke="#fff"/>

  <text x="610" y="110" fill="#fff" font-size="18">Malha (mesh)</text>
  <circle cx="660" cy="150" r="8" fill="#1f2937"/>
  <circle cx="740" cy="150" r="8" fill="#1f2937"/>
  <circle cx="700" cy="220" r="8" fill="#1f2937"/>
  <line x1="660" y1="150" x2="740" y2="150" stroke="#fff"/>
  <line x1="660" y1="150" x2="700" y2="220" stroke="#fff"/>
  <line x1="740" y1="150" x2="700" y2="220" stroke="#fff"/>
</g>
<text x="40" y="390" fill="#9ca3af" font-family="Arial" font-size="14">Em geral: estrela é a mais comum (switch no centro). Mesh aumenta redundância.</text>
</svg>