<svg xmlns="http://www.w3.org/2000/svg" width="1280" height="720" viewBox="0 0 1280 720">
  <defs>
    <linearGradient id="bg" x1="0" y1="0" x2="1" y2="1">
      <stop offset="0" stop-color="#0b1022"/>
      <stop offset="1" stop-color="#050713"/>
    </linearGradient>
    <linearGradient id="acc" x1="0" y1="0" x2="1" y2="1">
      <stop offset="0" stop-color="#46b0ff" stop-opacity="0.95"/>
      <stop offset="1" stop-color="#ff4081" stop-opacity="0.85"/>
    </linearGradient>
    <filter id="glow" x="-40%" y="-40%" width="180%" height="180%">
      <feGaussianBlur stdDeviation="10" result="b"/>
      <feMerge><feMergeNode in="b"/><feMergeNode in="SourceGraphic"/></feMerge>
    </filter>
    <filter id="soft" x="-20%" y="-20%" width="140%" height="140%">
      <feGaussianBlur stdDeviation="6" result="b"/>
      <feMerge><feMergeNode in="b"/><feMergeNode in="SourceGraphic"/></feMerge>
    </filter>
  </defs>

  <rect width="1280" height="720" fill="url(#bg)"/>
  <!-- network lines -->
  <g opacity="0.55">
    <path d="M0 430 C 220 400, 380 520, 640 470 S 1080 370, 1280 430" stroke="url(#acc)" stroke-width="3.5" fill="none" opacity="0.35"/>
    <path d="M0 510 C 220 470, 420 590, 640 540 S 1080 450, 1280 510" stroke="#46b0ff" stroke-width="2" fill="none" opacity="0.14"/>
    <path d="M0 350 C 220 320, 420 430, 640 395 S 1080 290, 1280 350" stroke="#ff4081" stroke-width="2" fill="none" opacity="0.12"/>
    <circle cx="210" cy="430" r="4" fill="#46b0ff" opacity="0.35"/>
    <circle cx="640" cy="470" r="5" fill="#ff4081" opacity="0.28"/>
    <circle cx="1040" cy="410" r="4" fill="#46b0ff" opacity="0.28"/>
  </g>

  <g filter="url(#soft)">
    <rect x="70" y="70" rx="28" width="1140" height="580" fill="rgba(255,255,255,0.03)" stroke="rgba(255,255,255,0.10)"/>
  </g>

  <!-- badge -->
  <g filter="url(#glow)">
    <rect x="100" y="110" rx="18" width="220" height="56" fill="rgba(255,255,255,0.06)" stroke="rgba(255,255,255,0.12)"/>
    <circle cx="132" cy="138" r="8" fill="#ff4081"/>
    <text x="210" y="148" text-anchor="middle" font-family="Inter, Arial" font-size="24" fill="rgba(255,255,255,0.85)" font-weight="900">DNS</text>
  </g>

  <!-- Title -->
  <text x="110" y="260" font-family="Inter, Arial" font-size="58" fill="rgba(255,255,255,0.94)" font-weight="900">DNS caiu e você reiniciou o roteador</text>
  <text x="110" y="332" font-family="Inter, Arial" font-size="30" fill="rgba(255,255,255,0.64)" font-weight="800">Clássico do suporte 😂</text>

  <!-- HUD footer -->
  <g opacity="0.9">
    <path d="M100 560 H1180" stroke="rgba(255,255,255,0.10)" stroke-width="2"/>
    <text x="110" y="600" font-family="JetBrains Mono, monospace" font-size="18" fill="rgba(255,255,255,0.55)">
      LOG: latency=62ms • loss=3.7% • jitter=22ms
    </text>
    <text x="110" y="628" font-family="JetBrains Mono, monospace" font-size="16" fill="rgba(255,255,255,0.42)">
      hint: check DNS/NAT/Wi‑Fi
    </text>
  </g>

  <!-- corner sparks -->
  <g opacity="0.8" filter="url(#glow)">
    <circle cx="1040" cy="388" r="6" fill="#46b0ff" opacity="0.75"/>
    <circle cx="1074" cy="418" r="4.5" fill="#ff4081" opacity="0.60"/>
    <circle cx="1008" cy="442" r="5" fill="#ff4081" opacity="0.55"/>
  </g>
</svg>